DBRep_DrawableShape

CASCADE Topology V3, (c) Open Cascade
Locations 3
1
              1              -0               0              -0 
              0               1               0              -0 
             -0               0               1 -2.67090909090909 
1
              1              -0               0              -0 
              0               1               0               0 
             -0               0               1            0.18 
2  1 -1 0
Curve2ds 116
2 -2.8509090909090911 0 -1 0 -0 -1 3.596812150311453
7 0 0  6 7 2  5.9825089157794586 0.79689201864990444  6.0284013777518854 0.81079882228860001  6.0766095192830907 0.82223562127538941  6.1268002019556178 0.83099465842772702  6.1784462155120874 0.83689692733382515  6.2308156548709288 0.83984771809450631  6.2831853071795862 0.83984771809450631 
 2.8598562909930516 7 3.1415926535897931 7
2 -2.8509090909090911 0 -1 0 -0 -1 3.596812150311453
7 0 0  6 7 2  0 0.83984771809450631  0.052369652308656998 0.83984771809450631  0.10473909166749706 0.83689692733383225  0.15638510522396842 0.8309946584276986  0.20657578789649378 0.82223562127539651  0.25478392942770123 0.81079882228860001  0.30067639140012764 0.79689201864990444 
 3.1415926535897931 7 3.4233290161865346 7
1 1.5707963267948966 0 0 1 
1 -5.5511151231257827e-17 1 1 0 
1 0 1.45 0 -1 
1 4.7550000000000008 1.45 0 -1 
1 0 0 0 1 
1 -5.5511151231257827e-17 -1 1 0 
1 0 0.63123132407753269 1 0 
2 10 10 1 0 -0 1 3.8999999999999999
2 2.560749311871579e-16 -7.2262731052669265e-18 1 0 -0 1 3.8999999999999999
1 6.2831853071795862 -6.2831853071795862 0 1 
1 0 -6.2831853071795862 0 1 
7 0 0  6 17 4  0 0.82802521736934009  0.09645328940221469 0.795285832795393  0.19334442747876027 0.76341361460157808  0.29098776232226697 0.73290899206559135  0.38961361854668963 0.70434768139094506  0.48940303645389788 0.67839897995009546  0.69354018401222117 0.63259496043095931  0.79798740082694297 0.61286570983681543  0.90367340299488186 0.59729609931149574  1.0103809347357093 0.58660161297404867  1.117743589020197 0.58126272735843487  1.2829577071509499 0.58127176839847816  1.340856239927632 0.58283039609530263  1.3986625101939498 0.58594512567056789  1.4562975268062772 0.5905775627003953  1.5136949411568821 0.59665841528514996  1.5707963267948966 0.604095633346449 
 0 7 0.38892302490243064 5 0.78586599970301696 5 1 7
7 0 0  6 17 4  0.48150285414035854 0.86568713374765627  0.47508288384160735 0.8552305880152109  0.46740101181387783 0.84520518397692246  0.45857034075911762 0.83574478224304627  0.44869239270027672 0.82699691738727954  0.43787226954478764 0.8191287567011456  0.4143635111941637 0.8053440910193701  0.40163538270872684 0.79946793804128069  0.38820902618669867 0.7948687765250082  0.37427256089216732 0.79172332716710625  0.36006123292049153 0.79015286598848133  0.33819261444071719 0.79015552536649325  0.33052889203107511 0.79061399829597434  0.32290697619610015 0.79153015301681096  0.31536670038204756 0.79289438778909316  0.3079451495521735 0.79468936514270305  0.30067639140012753 0.79689201864990433 
 0 7 0.38892302490243064 5 0.78586599970301696 5 1 7
2 6.7463805988037366 -3.5866674641275757e-17 1 0 -0 1 4.6081647805420438
7 0 0  8 44 7  0.48150285414035854 0.86568713374765627  0.50348155396933292 0.90148500651134555  0.52833841818267047 0.93681305762754619  0.55660129779221279 0.97157293271129674  0.58893337986000915 1.0056376051006737  0.6262218028496136 1.0388339521955459  0.66956611222315132 1.070929884011548  0.72055193993071787 1.1015789631968822  0.82608929441236223 1.1517856966438045  0.87656294573503146 1.1722005816098999  0.93298481979763892 1.1912977222541485  0.9961019455549831 1.2088062209049895  1.0665288431960107 1.2244027465776526  1.1446923353064449 1.2376783321683433  1.2297247220486858 1.2482225275921233  1.3872884461514114 1.2613911200684431  1.4576308429868732 1.2653364000719876  1.5299989873046798 1.2674614812840446  1.6033006193511028 1.2676819299858835  1.6761463851662484 1.26597530705385  1.7472470691768649 1.262405345004936  1.8156762517373235 1.2570848824369605  1.9296879065114454 1.2449548959269849  1.9767054227246623 1.238850166890235  2.0216224136324001 1.2318980526289707  2.0642883861224846 1.2241657755998858  2.1046551211156412 1.2157224103290503  2.1427487191814523 1.2066344207486903  2.178637855003879 1.1969632791320404  2.2630913857858799 1.1714678779652934  2.3090209795814429 1.1549848056272045  2.3505335957607514 1.1375054203594672  2.3880897493313569 1.119190790357095  2.4221441362809486 1.100170527428638  2.4531028881844303 1.0805484086166919  2.4813265503703876 1.06040986574977  2.5329263808880862 1.0192393009768386  2.5563025049238908 0.99820731312815292  2.5775672254889543 0.97679840802302509  2.5969838554583959 0.95506734619064504  2.6147732432244877 0.93305785685060127  2.6311204370619068 0.91080565441217121  2.6461814034639111 0.88834047510592862  2.6600897994494344 0.86568713374765671 
 2.4953487108305152 9 2.818470682210152 7 3.0608121607448795 7 3.242568269645925 7 3.3788853513217094 7 3.5833609738353873 7 3.787836596349071 9
7 0 0  6 17 4  0 3.7030021429242832  0.041705592080723088 3.6912210741256182  0.083336319173574744 3.6792631848913544  0.124908311790229 3.6671647918174979  0.16643768688613517 3.6549614098714813  0.20794054786051774 3.642687752392165  0.36851127021063745 3.5950494556310093  0.48748980038902234 3.5594258738937086  0.60679156693804415 3.5242975634102054  0.72672368949614674 3.4904377308179795  0.84752698459703035 3.4586287896925425  1.0680456649089669 3.4060961492012667  1.1674262996332849 3.384413083105883  1.267455013935177 3.3649790584017998  1.3680931892302954 3.3481748542698222  1.469265109787087 3.3343264351062514  1.5707963267948966 3.3236570380018713 
 0 7 0.16138402060826917 5 0.62453668254731243 5 1 7
7 0 0  6 17 4  0.53439547675441368 0.9405853715344934  0.53775302133586622 0.94472354014954496  0.54086633198454792 0.94895197419392574  0.54372412850705754 0.95326039535777285  0.54631460337918092 0.95763837181331113  0.54862542174589268 0.96207531821485359  0.55643599790422826 0.97943241376807066  0.55981858879910218 0.99270001314942469  0.56048936024059182 1.0061116616669006  0.55810870519588729 1.0193899781604394  0.55231444476513603 1.0321951349519367  0.53541457929287761 1.0538293420529858  0.52552177504974373 1.0629525609577095  0.51324322913214526 1.0713027541832398  0.49862045197182198 1.0786572760454471  0.48192322806221183 1.0847981178560646  0.46364760900080609 1.0895696172969314 
 0 7 0.16138402060826917 5 0.62453668254731243 5 1 7
2 7.6059090909090914 0 -1 0 -0 -1 4.3974632056025325
7 0 0  8 9 2  0.46364760900080593 1.0895696172969316  0.41452785765002015 1.1023940729456454  0.36227480822699931 1.1137786872435527  0.30696594368964725 1.1235690849898674  0.24883424268909948 1.1316092158031097  0.18831210190217007 1.1377524336944589  0.12610317471282428 1.1418851398184415  0.063051607123050954 1.1439515385421415  5.3853392391094003e-16 1.1439515385421415 
 6.0537744703399454 9 6.2831853071795862 9
1 0 1.5707963267948966 1 0 
2 7.6059090909090914 0 -1 0 -0 -1 4.3974632056025325
7 0 0  8 9 2  6.2831853071795862 1.1439515385421415  6.220133700056536 1.1439515385421415  6.1570821324664777 1.1418851398187826  6.094873205278553 1.1377524336899114  6.0343510644879856 1.1316092158076572  5.9762193634911895 1.1235690849825914  5.9209104989522743 1.1137786872438937  5.8686574495295663 1.1023940729456452  5.8195376981787801 1.0895696172969314 
 0 9 0.2294108368396412 9
7 0 0  6 17 4  0 3.3236570380018726  0.10234351506840268 3.334411795361266  0.20432147664347206 3.348396597144025  0.30575525820497373 3.3653827374573528  0.40656861580299458 3.3850355721125669  0.50672306378915566 3.4069643711063833  0.72745400645464986 3.4597250647619187  0.84771634458386558 3.4914569522383405  0.96711972376188715 3.5252054078927482  1.085903349424622 3.5601982614675052  1.2043715370403307 3.5956720689766444  1.3641717746924009 3.6430769013824071  1.4054120658283056 3.6552709314502398  1.4466789277112913 3.6673949468833644  1.4879881937012989 3.6794148909102677  1.5293555082288197 3.6912958678124226  1.5707963267948966 3.7030021429242823 
 0 7 0.37846472113223906 5 0.83963891424902903 5 1 7
7 0 0  6 17 4  5.8195376981787801 1.0895696172969311  5.8011158654664676 1.0847599435895072  5.7842978553737803 1.0785589516338272  5.7695917786412902 1.0711260947480217  5.7572717317756528 1.0626851509671544  5.7473767871790722 1.0534641441348296  5.7306640736457446 1.0317533889289092  5.7249904651417483 1.0189889440139601  5.7226939862767159 1.0057628334147461  5.7234170050939923 0.99240949540028933  5.7268245355234901 0.97920241826655441  5.7346332693164328 0.96193465320257809  5.7369364747643568 0.95752733796700928  5.739515577894891 0.95317843745522524  5.7423584852335248 0.94889833085556952  5.7454536016633755 0.94469726843408119  5.7487898304251734 0.94058537153449351 
 0 7 0.37846472113223906 5 0.83963891424902903 5 1 7
2 6.7463805988037366 -3.5866674641275757e-17 1 0 -0 1 4.6081647805420438
7 0 0  8 44 7  5.8016824530392279 0.86568713374765627  5.7797037532102538 0.90148500651134555  5.754846888996326 0.93681305762754619  5.7265840093823499 0.97157293271129674  5.694251927339792 1.0056376051006737  5.6569635043233575 1.0388339521955459  5.6136191949526619 1.070929884011548  5.5626333672488677 1.1015789631968822  5.4570960127672237 1.1517856966438045  5.4066223614422597 1.1722005816098999  5.3502004873498663 1.1912977222541485  5.2870833616034361 1.2088062209049895  5.2166564639483113 1.2244027465776526  5.1384929718724379 1.2376783321683433  5.0534605851309005 1.2482225275921233  4.8958968610281746 1.2613911200684431  4.8255544641870074 1.2653364000719876  4.7531863198801148 1.2674614812840446  4.6798846878045879 1.2676819299858835  4.6070389220203651 1.26597530705385  4.5359382380001989 1.262405345004936  4.4675090554422621 1.2570848824369605  4.3534974006681404 1.2449548959269849  4.3064798844546521 1.238850166890235  4.2615628935470369 1.2318980526289707  4.2188969210560572 1.2241657755998858  4.1785301860626873 1.2157224103290503  4.1404365879982032 1.2066344207486903  4.1045474521757068 1.1969632791320404  4.0200939213937064 1.1714678779652934  3.9741643275982126 1.1549848056272258  3.9326517114195667 1.1375054203593358  3.8950955578493449 1.119190790357095  3.8610411708991137 1.1001705274287588  3.8300824189947136 1.0805484086166492  3.8018587568091982 1.06040986574977  3.7502589262915 1.0192393009768386  3.7268828022556533 0.99820731312815292  3.7056180816905422 0.97679840802302509  3.6862014517210802 0.95506734619064504  3.6684120639550084 0.93305785685060127  3.6520648701176373 0.91080565441217121  3.6370039037156752 0.88834047510592862  3.6230955077301519 0.86568713374765671 
 2.4953487108305152 9 2.8184706822101524 7 3.0608121607448813 7 3.2425682696459286 7 3.3788853513217143 7 3.5833609738353935 7 3.787836596349071 9
7 0 0  6 17 4  0 0.60409563334644867  0.057361417101636218 0.59662454726818048  0.11502095314907435 0.5905222860839705  0.17291986571228823 0.58588205069811516  0.23099105525931193 0.58277396015858696  0.28915434331972184 0.5812366708634974  0.45464223524689118 0.5813286519279155  0.56200986767701511 0.58673416003826317  0.66871721638662929 0.59749302316149788  0.77439928084240994 0.6131217465999842  0.87884052437987148 0.63290357530955099  1.0826931301705125 0.67873716658957173  1.182210403107828 0.70464540278127774  1.2805715027623439 0.73314736523270752  1.3779567781808499 0.76357969285285321  1.4745947502234293 0.79537127231973825  1.5707963267948966 0.82802521736934032 
 0 7 0.21510672031627848 5 0.61208983205698753 5 1 7
7 0 0  6 17 4  5.9825089157794586 0.79689201864990433  5.9752070567525415 0.79467933457673812  5.9677510887556666 0.7928780713676763  5.960175487474725 0.79151157786555437  5.9525178346137615 0.79059739835810738  5.9448185315803874 0.7901452015959548  5.9229136892383023 0.79017225738243357  5.9087035544099047 0.79176231580853818  5.8947708673807551 0.79492683995235003  5.8813505890774298 0.7995438129439062  5.8686304651792423 0.80543618847774656  5.8451721494275279 0.81923130745636019  5.8343900255867291 0.82708810913156461  5.824545993180763 0.83581871276402464  5.8157442648165683 0.84525742344815569  5.8080856692292571 0.85525787631965833  5.8016824530392279 0.86568713374765627 
 0 7 0.21510672031627848 5 0.61208983205698753 5 1 7
7 0 0  6 17 4  0 1.431342961998129  0.10234351506839118 1.420588204638737  0.20432147664349742 1.4066034028559731  0.30575525820495286 1.3896172625426493  0.40656861580300391 1.3699644278874366  0.50672306378915444 1.3480356288936177  0.72745400645469438 1.2952749352380712  0.84771634458373857 1.2635430477617149  0.96711972376207256 1.229794592107168  1.0859033494244701 1.1948017385325578  1.2043715370403905 1.1593279310233398  1.3641717746924005 1.1119230986175952  1.4054120658283071 1.0997290685497616  1.446678927711293 1.0876050531166372  1.4879881937012989 1.0755851090897339  1.5293555082288173 1.0637041321875795  1.5707963267948966 1.0519978570757187 
 0 7 0.37846472113212704 5 0.83963891424894421 5 1 7
7 0 0  6 17 4  3.6052402625905993 1.0895696172969314  3.6236620953029095 1.0847599435895079  3.6404801053956022 1.0785589516338265  3.6551861821280878 1.0711260947480215  3.6675062289937257 1.0626851509671551  3.6774011735903072 1.0534641441348296  3.6941138871236388 1.0317533889289048  3.6997874956276271 1.0189889440139723  3.7020839744926608 1.0057628334147286  3.7013609556753928 0.99240949540030454  3.6979534252458861 0.97920241826654819  3.6901446914529465 0.9619346532025782  3.6878414860050217 0.95752733796700928  3.6852623828744888 0.95317843745522524  3.682419475535855 0.94889833085556974  3.6793243591060047 0.94469726843408142  3.6759881303442072 0.94058537153449351 
 0 7 0.37846472113212704 5 0.83963891424894421 5 1 7
2 -2.8509090909090911 0 -1 0 -0 -1 4.3974632056025325
7 0 0  8 16 3  3.6052402625905997 1.0895696172969311  3.556120511239814 1.102394072945645  3.5038674618167533 1.1137786872435527  3.4485585972633999 1.1235690849898674  3.3904268962887727 1.1316092158031097  3.3299047554774006 1.1377524336944589  3.2676958283018394 1.1418851398184415  3.2046442607128438 1.1439515385421415  3.0785410464667424 1.1439515385421415  3.0154894788738602 1.1418851398181005  2.9532805516901135 1.1377524336949136  2.8927584108769224 1.1316092158049287  2.8346267099059332 1.1235690849894127  2.7793178453584915 1.1137786872427569  2.7270647959397727 1.1023940729456452  2.677945044588987 1.0895696172969314 
 2.9121818167501519 9 3.1415926535897931 7 3.3710034904294344 9
7 0 0  6 17 4  0 1.0519978570757187  0.041705592080724135 1.0637789258743842  0.083336319173574411 1.0757368151086477  0.12490831179022784 1.0878352081825036  0.16643768688613469 1.1000385901285199  0.2079405478605186 1.1123122476078369  0.36851127021062657 1.159950544368989  0.48748980038902678 1.1955741261062909  0.60679156693805947 1.2307024365898069  0.72672368949612864 1.2645622691820138  0.84752698459703846 1.2963712103074612  1.068045664908887 1.3489038507987159  1.1674262996335665 1.3705869168941691  1.2674550139347858 1.3900209415981419  1.3680931892305517 1.4068251457302154  1.46926510978702 1.4206735648937423  1.5707963267948966 1.4313429619981295 
 0 7 0.16138402060832183 5 0.62453668254749017 5 1 7
7 0 0  6 17 4  2.6071971768353794 0.94058537153449351  2.6038396322539263 0.94472354014954529  2.6007263216052454 0.94895197419392574  2.5978685250827365 0.95326039535777285  2.5952780502106125 0.95763837181331113  2.5929672318439003 0.9620753182148537  2.5851566556855654 0.97943241376806955  2.5817740647906877 0.9927000131494248  2.5811032933492082 1.0061116616669039  2.5834839483939009 1.0193899781604367  2.5892782088246582 1.0321951349519374  2.6061780742969098 1.0538293420529781  2.6160708785400719 1.0629525609577262  2.6283494244576113 1.071302754183223  2.6429722016180026 1.0786572760454574  2.6596694255275692 1.0847981178560615  2.677945044588987 1.0895696172969314 
 0 7 0.16138402060832183 5 0.62453668254749017 5 1 7
7 0 0  6 17 4  0 3.9269747826306607  0.096453289402231232 3.9597141672046132  0.19334442747872421 3.991586385398409  0.29098776232230306 4.0220910079344243  0.38961361854666937 4.050652318609048  0.48940303645390471 4.0766010200499077  0.69354018401221718 4.1224050395690419  0.79798740082700248 4.1421342901631899  0.90367340299474086 4.1577039006884986  1.0103809347358488 4.168398387025956  1.117743589020143 4.1737372726415671  1.2829577071509177 4.1737282316015225  1.3408562399276873 4.1721696039046927  1.398662510193948 4.1690548743294356  1.456297526806221 4.1644224372996126  1.5136949411569169 4.1583415847148446  1.5707963267948966 4.1509043666535499 
 0 7 0.38892302490251129 5 0.78586599970319382 5 1 7
7 0 0  6 17 4  2.6600897994494348 0.86568713374765627  2.666509769748187 0.85523058801520913  2.6741916417759075 0.84520518397692701  2.6830223128306869 0.83574478224304083  2.6929002608895103 0.8269969173872822  2.7037203840450061 0.81912875670114504  2.727229142395629 0.80534409101937021  2.739957270881078 0.79946793804127936  2.753383627403069 0.79486877652500998  2.7673200926976484 0.79172332716710536  2.7815314206692947 0.79015286598848111  2.8034000391490719 0.79015552536649303  2.8110637615587244 0.79061399829597534  2.818685677393693 0.79153015301681018  2.8262259532077394 0.79289438778909149  2.8336475040376237 0.79468936514270438  2.8409162621896655 0.79689201864990444 
 0 7 0.38892302490251129 5 0.78586599970319382 5 1 7
2 7.6059090909090914 0 -1 0 -0 -1 3.596812150311453
7 0 0  6 12 3  2.8409162621896651 0.79689201864990422  2.8868087241620914 0.81079882228859979  2.9350168656933704 0.82223562127540362  2.9852075483657359 0.83099465842771281  3.0368535619223564 0.83689692733383936  3.0892230012811361 0.83984771809450631  3.1939623058984501 0.83984771809450631  3.246331745257379 0.83689692733383225  3.297977758813488 0.8309946584276986  3.3481684414863651 0.82223562127539651  3.3963765830174943 0.81079882228860001  3.4422690449899207 0.79689201864990444 
 6.0014489445828447 7 6.2831853071795862 5 6.5649216697763277 7
7 0 0  6 17 4  0 4.1509043666535526  0.057361417101640923 4.1583754527318222  0.11502095314906736 4.1644777139160309  0.17291986571228771 4.1691179493018868  0.23099105525931862 4.1722260398414148  0.28915434331971812 4.1737633291365031  0.45464223524690256 4.1736713480720855  0.56200986767704531 4.1682658399617285  0.66871721638652692 4.157506976838528  0.7743992808425143 4.1418782533999927  0.87884052437983107 4.1220964246904597  1.0826931301704503 4.0762628334104436  1.1822104031080287 4.050354597218683  1.2805715027620312 4.0218526347673595  1.3779567781811006 3.9914203071470835  1.4745947502233396 3.9596287276802928  1.5707963267948966 3.9269747826306602 
 0 7 0.21510672031635825 5 0.61208983205722556 5 1 7
7 0 0  6 17 4  3.4422690449899207 0.79689201864990433  3.4495709040168392 0.79467933457673789  3.4570268720137123 0.79287807136767663  3.464602473294653 0.79151157786555426  3.4722601261556165 0.79059739835810694  3.479959429188991 0.7901452015959548  3.5018642715310788 0.79017225738243357  3.516074406359476 0.79176231580854006  3.530007093388615 0.79492683995234437  3.5434273716919598 0.79954381294391219  3.5561474955901322 0.80543618847774368  3.5796058113418439 0.81923130745635586  3.5903879351826617 0.82708810913157571  3.6002319675886025 0.8358187127640051  3.6090336959528235 0.84525742344817567  3.6166922915401161 0.85525787631964856  3.6230955077301514 0.86568713374765627 
 0 7 0.21510672031635825 5 0.61208983205722556 5 1 7
1 0 0 0 1 
1 3.895471507894646 2.7750000000000004 -1 0 
8 0 1.5707963267948966
1 0 4.7550000000000008 1 0 
8 0 1.5707963267948966
1 0 4.7123889803846897 0 1 
1 3.1415926535897927 1.45 0 -1 
1 0 1.45 0 -1 
1 0 6.2831853071795862 1 0 
1 0 1 1 0 
1 0 0 1 0 
1 0 -1 1 0 
8 0 1.5707963267948966
1 0 4.7550000000000008 1 0 
8 0 1.5707963267948966
1 0 0 0 1 
1 1.5707963267948966 0 0 1 
1 3.895471507894646 2.7750000000000004 -1 0 
1 0 -0.17999999999999999 1 0 
2 2.560749311871579e-16 -7.2262731052669265e-18 1 0 -0 1 4.0049999999999999
1 0 0 0 1 
1 -0.85952849210535476 -2.7750000000000004 1 0 
1 0 4.7123889803846897 1 0 
2 -0.85952849210535387 -3.5866674641275757e-17 -3.2006429538743255e-16 1 -1 -3.2006429538743255e-16 2.7749999999999999
1 0 0 0 1 
1 -0.85952849210535476 2.4500000000000002 1 0 
1 0 1.5707963267948966 1 0 
2 -0.85952849210535476 1.8617793028375556e-16 0 -1 -1 -0 2.4500000000000002
1 0 0 0 1 
1 3.895471507894646 -2.4500000000000002 -1 0 
1 1.5707963267948966 0 0 1 
1 0 1 1 0 
8 1.5707963267948966 3.1415926535897931
1 3.1415926535897931 0 0 1 
8 1.5707963267948966 3.1415926535897931
1 -1.5707963267948966 0 1 0 
1 3.1415926535897931 -1.45 -0 1 
1 0 -1.45 0 1 
1 0 0 0 1 
1 0 -1 1 0 
1 1.5707963267948966 0 0 1 
1 -0.85952849210535476 2.4500000000000002 1 0 
8 3.1415926535897931 4.7123889803846897
1 3.1415926535897931 0 0 1 
8 3.1415926535897931 4.7123889803846897
1 -3.1415926535897931 0 1 0 
1 1.5707963267948966 0 0 1 
1 -0.85952849210535476 -2.7750000000000004 1 0 
1 0 1.5707963267948966 1 0 
2 -0.85952849210535387 -3.5866674641275757e-17 -3.2006429538743255e-16 1 -1 -3.2006429538743255e-16 2.7749999999999999
1 0 4.7123889803846897 1 0 
2 -0.85952849210535476 1.8617793028375556e-16 0 -1 -1 -0 2.4500000000000002
1 1.5707963267948966 0 0 1 
1 3.895471507894646 -2.4500000000000002 -1 0 
1 0 0 0 1 
1 -5.5511151231257827e-17 -1 1 0 
8 0 1.5707963267948966
1 0 4.7550000000000008 1 0 
8 0 1.5707963267948966
1 0 3.1415926535897931 0 1 
1 0 1.45 0 -1 
1 4.7550000000000008 1.45 0 -1 
1 1.5707963267948966 0 0 1 
1 -5.5511151231257827e-17 1 1 0 
8 0 1.5707963267948966
1 0 4.7550000000000008 1 0 
8 0 1.5707963267948966
1 0 1.5707963267948966 0 1 
1 1.5707963267948966 0 0 1 
1 0 1 1 0 
8 4.7123889803846897 6.2831853071795862
1 3.1415926535897927 0 0 1 
8 4.7123889803846897 6.2831853071795862
1 -4.7123889803846897 0 1 0 
1 0 0 0 1 
1 0 -1 1 0 
8 0 1.5707963267948966
1 3.1415926535897927 0 0 1 
8 0 1.5707963267948966
1 0 0 1 0 
1 0 0 0 -1 
1 6.2831853071795862 0 0 -1 
1 0 0 1 0 
2 2.560749311871579e-16 -7.2262731052669265e-18 1 0 -0 1 4.0049999999999999
1 0 3.1415926535897931 1 0 
1 0 1 1 0 
1 0 3.1415926535897931 1 0 
1 0 -1 1 0 
Curves 57
2 3.2250000000000001 0 -2.6709090909090909 -1 0 0 0 0 -1 -0 -1 -0 3.596812150311453
2 3.2250000000000001 0 -2.6709090909090909 -1 0 0 0 0 -1 -0 -1 -0 3.596812150311453
1 3.2250000000000005 1 0.17999999999999994 0 0 1 
8 0 2.8999999999999999
1 3.2250000000000001 1.45 4.9350000000000005 0 -1 0 
1 3.2250000000000005 -1 0.17999999999999994 0 0 1 
2 0 0 0.18000000000000016 0 0 1 1 0 -0 -0 1 0 3.8999999999999999
2 0 0 0 -2.4492935982947064e-16 -1 0 1 -2.4492935982947064e-16 0 0 0 1 4.830909090909091
7 0 0  6 17 4  2.7750000000000004 1.45 1.0080252173693403  2.8184039802309968 1.45 0.97528583279539316  2.8620050934054082 1.4449762971492337 0.94341361460157669  2.9052173032464848 1.4348430474564635 0.91290899206559328  2.947386455546873 1.4195463684406855 0.88434768139094388  2.9877577670494717 1.3991252149055278 0.8583989799500954  3.0640674216654702 1.3479841203477276 0.81259496043095925  3.0999152695105412 1.3170482111916333 0.79286570983681537  3.1321367028746803 1.2812969140426318 0.77729609931149579  3.1597820445227947 1.2412820971576435 0.76660161297404861  3.1820061434228997 1.1979350792778405 0.76126272735843481  3.2072011152572397 1.1279880019816046 0.76127176839847832  3.2143277686051888 1.1028619095608496 0.76283039609530245  3.2196836003197142 1.0773095676534648 0.76594512567056772  3.2232393261600385 1.051524370627331 0.77057756270039512  3.225000000000001 1.0256956235371066 0.77665841528514978  3.225000000000001 1 0.78409563334644883 
 0 7 0.38892302490243064 5 0.78586599970301696 5 1 7
2 0 1.45 -2.6709090909090909 0 -1 -0 0 0 -1 1 -0 0 4.6081647805420438
7 0 0  6 17 4  2.4499999999999997 1.45 1.2319978570757186  2.4312324835636749 1.45 1.2437789258743839  2.4124986890885691 1.4490607272993403 1.2557368151086468  2.393850018068814 1.4471885707134196 1.2678352081825022  2.3753369853501511 1.4443922497721546 1.2800385901285181  2.3570092191299383 1.4406828147199817 1.2923122476078353  2.2869885587110357 1.4228458900439405 1.3399505443689912  2.236995228864437 1.4022091011116209 1.3755741261062964  2.190071037232646 1.3744776945469179 1.4107024365897862  2.1473528865118294 1.3401141054045151 1.4445622691820266  2.1099877245489593 1.2998253212184634 1.476371210307458  2.0538351109681225 1.2180075182519872 1.5289038507987338  2.0328688518659477 1.1781562671107704 1.5505869168941016  2.0166260058358523 1.1356554814645592 1.5700209415982287  2.0055666500632046 1.0912164912819224 1.5868251457301636  2 1.0456890476535143 1.6006735648937491  2 1 1.6113429619981292 
 0 7 0.16138402060826917 5 0.62453668254731243 5 1 7
2 2 0 -2.6709090909090909 1 0 0 -0 0 1 0 -1 0 4.3974632056025325
2 2 0 -2.6709090909090909 1 0 0 -0 0 1 0 -1 0 4.3974632056025325
7 0 0  6 17 4  2 -1 1.6113429619981292  2 -1.0460545817807811 1.6005882046387359  2.005656079440123 -1.0919447496046941 1.5866034028559672  2.0168923964555234 -1.1367212222352416 1.5696172625426585  2.0333902631972296 -1.1795146626942186 1.5499644278874287  2.0546762497895883 -1.2195989155565337 1.5280356288936172  2.1112701495601742 -1.301228356883676 1.4752749352380816  2.1486275313924761 -1.3411808973802415 1.4435430477616709  2.1912677549178965 -1.3752429043094632 1.4097945921072339  2.238058633585482 -1.4027204426618569 1.3748017385325046  2.2878778269585163 -1.4231587655593019 1.3393279310233559  2.357590436309958 -1.4408000687432818 1.2919230986175934  2.3758066108030427 -1.4444629654492627 1.27972906854976  2.3942048178400235 -1.4472240805178183 1.2676050531166363  2.4127363718921306 -1.4490726046675151 1.2555851090897328  2.4313516316452652 -1.45 1.2437041321875784  2.4499999999999997 -1.45 1.2319978570757186 
 0 7 0.37846472113223906 5 0.83963891424902903 5 1 7
2 0 -1.45 -2.6709090909090909 0 -1 -0 0 0 -1 1 -0 0 4.6081647805420438
7 0 0  6 17 4  3.225000000000001 -1 0.78409563334644883  3.225000000000001 -1.0258126376957362 0.77662454726818064  3.2232232562854524 -1.0517593357871742 0.77052228608397011  3.2196349800465569 -1.0776612263827048 0.76588205069811488  3.2142301708738206 -1.1033264358650754 0.76277396015858701  3.2070388011634408 -1.1285588845811805 0.76123667086349733  3.1816915029006587 -1.1985819418667165 0.76132865192791543  3.1593970584053341 -1.241895502097325 0.76673416003826311  3.1316875526251735 -1.2818658350764778 0.77749302316149782  3.0994103323587021 -1.3175641980129698 0.79312174659998413  3.0635155727648047 -1.348441456880316 0.81290357530955093  2.9872317559118939 -1.399390902177567 0.85873716658957167  2.9469469714305734 -1.4197055432714332 0.88464540278127768  2.9048796596410149 -1.4349221100460328 0.91314736523270745  2.8617778969202536 -1.44500248464998 0.94357969285285315  2.8182907094571608 -1.45 0.97537127231973819  2.7750000000000004 -1.45 1.0080252173693403 
 0 7 0.21510672031627848 5 0.61208983205698753 5 1 7
7 0 0  6 17 4  -2 -1 1.6113429619981294  -2 -1.046054581780776 1.6005882046387372  -2.0056560794401186 -1.0919447496047097 1.5866034028559708  -2.0168923964555314 -1.1367212222352252 1.5696172625426517  -2.0333902631972265 -1.1795146626942263 1.5499644278874356  -2.0546762497895878 -1.2195989155565332 1.5280356288936177  -2.1112701495601858 -1.3012283568836924 1.4752749352380712  -2.1486275313924286 -1.3411808973802002 1.4435430477617148  -2.1912677549179778 -1.3752429043095113 1.409794592107168  -2.2380586335854131 -1.4027204426618287 1.3748017385325579  -2.2878778269585425 -1.4231587655593085 1.3393279310233397  -2.3575904363099571 -1.4408000687432814 1.2919230986175949  -2.3758066108030427 -1.4444629654492624 1.2797290685497615  -2.3942048178400239 -1.4472240805178183 1.2676050531166372  -2.4127363718921302 -1.4490726046675151 1.2555851090897336  -2.4313516316452639 -1.45 1.2437041321875792  -2.4499999999999997 -1.45 1.2319978570757186 
 0 7 0.37846472113212704 5 0.83963891424894421 5 1 7
2 -2 0 -2.6709090909090909 -1 0 0 0 0 -1 -0 -1 -0 4.3974632056025325
7 0 0  6 17 4  -2.4499999999999997 1.45 1.2319978570757186  -2.4312324835636741 1.45 1.2437789258743843  -2.41249868908857 1.4490607272993403 1.2557368151086477  -2.3938500180688149 1.4471885707134196 1.2678352081825035  -2.3753369853501511 1.4443922497721546 1.2800385901285196  -2.3570092191299374 1.4406828147199817 1.2923122476078366  -2.2869885587110406 1.4228458900439416 1.339950544368989  -2.2369952288644326 1.4022091011116189 1.3755741261062921  -2.1900710372326424 1.3744776945469126 1.4107024365898047  -2.1473528865118343 1.340114105404524 1.4445622691820148  -2.1099877245489576 1.2998253212184603 1.4763712103074611  -2.053835110968143 1.2180075182520167 1.5289038507987158  -2.0328688518659059 1.1781562671106878 1.5505869168941691  -2.0166260058358878 1.1356554814646693 1.5700209415981414  -2.0055666500631917 1.0912164912818401 1.5868251457302156  -2 1.0456890476535445 1.6006735648937422  -2 1 1.6113429619981294 
 0 7 0.16138402060832183 5 0.62453668254749017 5 1 7
7 0 0  6 17 4  -2.7750000000000004 1.45 1.0080252173693403  -2.8184039802310044 1.45 0.9752858327953875  -2.8620050934053829 1.444976297149251 0.94341361460159268  -2.9052173032465181 1.434843047456432 0.91290899206557097  -2.9473864555468543 1.4195463684407041 0.88434768139095576  -2.9877577670494744 1.399125214905526 0.85839897995009273  -3.0640674216654689 1.3479841203477285 0.81259496043095902  -3.099915269510551 1.3170482111916066 0.79286570983681259  -3.1321367028746594 1.2812969140426969 0.7772960993114989  -3.1597820445228155 1.2412820971575811 0.76660161297404628  -3.1820061434228917 1.1979350792778634 0.7612627273584337  -3.2072011152572344 1.1279880019816184 0.7612717683984771  -3.2143277686051928 1.1028619095608285 0.76283039609530734  -3.2196836003197169 1.0773095676534659 0.7659451256705645  -3.2232393261600354 1.0515243706273523 0.7705775627003878  -3.225000000000001 1.0256956235370909 0.77665841528515533  -3.225000000000001 1 0.78409563334644972 
 0 7 0.38892302490251129 5 0.78586599970319382 5 1 7
2 -3.2250000000000001 0 -2.6709090909090909 1 0 0 -0 0 1 0 -1 0 3.596812150311453
7 0 0  6 17 4  -3.225000000000001 -1 0.78409563334644972  -3.225000000000001 -1.0258126376957384 0.77662454726818098  -3.2232232562854524 -1.0517593357871713 0.77052228608396833  -3.2196349800465569 -1.0776612263827046 0.76588205069811333  -3.2142301708738206 -1.1033264358650776 0.76277396015858689  -3.2070388011634416 -1.1285588845811787 0.76123667086349711  -3.1816915029006569 -1.1985819418667212 0.76132865192791521  -3.1593970584053248 -1.241895502097325 0.76673416003826966  -3.1316875526252019 -1.2818658350764642 0.77749302316147673  -3.0994103323586701 -1.3175641980129891 0.79312174660000578  -3.0635155727648198 -1.348441456880306 0.81290357530954072  -2.9872317559119175 -1.3993909021775515 0.85873716658955657  -2.946946971430517 -1.4197055432714598 0.88464540278131165  -2.9048796596411055 -1.4349221100460101 0.91314736523265139  -2.8617778969201653 -1.4450024846499889 0.94357969285291099  -2.8182907094572007 -1.45 0.97537127231970777  -2.7750000000000004 -1.45 1.0080252173693403 
 0 7 0.21510672031635825 5 0.61208983205722556 5 1 7
1 2.7750000000000004 1.45 0.17999999999999994 0 0 1 
2 2.7750000000000004 1 4.9350000000000005 -0 -0 -1 -0 1 0 1 0 -0 0.45000000000000001
8 0 2.8999999999999999
1 -3.2250000000000001 1.45 4.9350000000000005 0 -1 0 
2 0 1 4.9349999999999996 0 -1 -0 1 0 2.7540416114732565e-16 -2.7540416114732565e-16 -0 1 3.2250000000000001
2 0 -1 4.9349999999999996 0 -1 -0 1 0 2.7540416114732565e-16 -2.7540416114732565e-16 -0 1 3.2250000000000001
2 2.7750000000000004 -1 4.9350000000000005 -0 -0 -1 1 0 -0 0 -1 0 0.45000000000000001
1 2.7750000000000004 -1.45 0.17999999999999994 0 0 1 
2 0 0 0.17999999999999999 0 0 1 1 0 0 0 1 0 4.0049999999999999
1 -2.7750000000000004 1.45 4.9350000000000005 0 0 -1 
2 0 1.45 4.9349999999999996 0 -1 -0 1 0 2.7540416114732565e-16 -2.7540416114732565e-16 -0 1 2.7749999999999999
1 2.4500000000000002 1.45 4.9350000000000005 0 0 -1 
2 2.2204460492503131e-16 1.45 4.9350000000000005 -0 1 0 -1 -0 0 0 0 1 2.4500000000000002
1 -2.4500000000000002 1.45 0.17999999999999994 0 0 1 
1 2 1 4.9350000000000005 0 0 -1 
2 2.4500000000000002 1 4.9350000000000005 -1.2246467991473532e-16 -0 1 1 0 1.2246467991473532e-16 -0 1 0 0.45000000000000001
8 0 2.8999999999999999
1 2 -1.45 4.9350000000000005 0 1 0 
1 2 -1 4.9350000000000005 0 0 -1 
1 2.4500000000000002 -1.45 4.9350000000000005 0 0 -1 
2 2.4500000000000002 -1 4.9350000000000005 -1.2246467991473532e-16 -0 1 1 0 1.2246467991473532e-16 -0 1 0 0.45000000000000001
1 -2.7750000000000004 -1.45 4.9350000000000005 0 0 -1 
2 0 -1.45 4.9349999999999996 0 -1 -0 1 0 2.7540416114732565e-16 -2.7540416114732565e-16 -0 1 2.7749999999999999
2 2.2204460492503131e-16 -1.45 4.9350000000000005 -0 1 0 -1 -0 0 0 0 1 2.4500000000000002
1 -2.4500000000000002 -1.45 0.17999999999999994 0 0 1 
1 -2 -1 0.17999999999999994 0 0 1 
2 -2.4500000000000002 -1 4.9350000000000005 -0 -0 -1 1 0 -0 0 -1 0 0.45000000000000001
8 0 2.8999999999999999
1 -2 1.45 4.9350000000000005 0 -1 0 
1 -2 1 0.17999999999999994 0 0 1 
2 -2.4500000000000002 1 4.9350000000000005 -0 -0 -1 -0 1 0 1 0 -0 0.45000000000000001
1 -3.2250000000000005 1 4.9350000000000005 0 0 -1 
2 -2.7749999999999999 1 4.9350000000000005 2.9114972861747231e-16 0 1 -1 -0 2.9114972861747231e-16 0 -1 0 0.45000000000000001
1 -3.2250000000000005 -1 4.9350000000000005 0 0 -1 
2 -2.7749999999999999 -1 4.9350000000000005 2.9114972861747231e-16 0 1 -1 -0 2.9114972861747231e-16 0 -1 0 0.45000000000000001
1 4.0049999999999999 0 0 0 0 1 
2 0 0 0 0 0 1 1 0 0 0 1 0 4.0049999999999999
2 2.2204460492503131e-16 1 4.9350000000000005 -0 1 0 -1 -0 0 0 0 1 2
2 2.2204460492503131e-16 -1 4.9350000000000005 -0 1 0 -1 -0 0 0 0 1 2
Polygon3D 0
PolygonOnTriangulations 0
Surfaces 25
1 3.2250000000000001 0 0.17999999999999999 -1 0 0 0 0 1 0 1 -0 
4 0 0 0 0 0 1 1 0 -0 -0 1 0 4.830909090909091
2 2.7750000000000004 1 0.17999999999999994 0 0 1 -0 1 0 1 0 -0 0.45000000000000001
2 0 0 4.9349999999999996 -0 1 -0 1 0 2.7540416114732565e-16 -2.7540416114732565e-16 0 1 3.2250000000000001
2 2.7750000000000004 -1 0.17999999999999994 0 0 1 1 0 -0 0 -1 -0 0.45000000000000001
1 -10 -10 0 0 0 1 1 0 -0 -0 1 0 
1 -2.560749311871579e-16 7.2262731052669265e-18 0.17999999999999999 0 0 1 1 0 -0 -0 1 0 
1 3.5866674641275757e-17 1.45 4.0754715078946457 -0 -1 -0 0 0 -1 1 -0 0 
2 2.4500000000000002 1 4.9350000000000005 0 0 -1 0 1 0 -1 0 -0 0.45000000000000001
1 2 0 4.9350000000000005 1 0 0 0 0 -1 -0 1 0 
2 2.4500000000000002 -1 4.9350000000000005 0 0 -1 -1 -0 -0 0 -1 -0 0.45000000000000001
1 3.5866674641275757e-17 -1.45 4.0754715078946457 -0 -1 -0 0 0 -1 1 -0 0 
2 -2.4500000000000002 -1 0.17999999999999994 0 0 1 1 0 -0 0 -1 -0 0.45000000000000001
1 -2 0 0.17999999999999999 -1 0 0 0 0 1 0 1 -0 
2 -2.4500000000000002 1 0.17999999999999994 0 0 1 -0 1 0 1 0 -0 0.45000000000000001
2 -2.7750000000000004 1 4.9350000000000005 0 0 -1 0 1 0 -1 0 -0 0.45000000000000001
1 -3.2250000000000001 0 4.9350000000000005 1 0 0 0 0 -1 -0 1 0 
2 -2.7750000000000004 -1 4.9350000000000005 0 0 -1 -1 -0 -0 0 -1 -0 0.45000000000000001
5 0 1 4.9349999999999996 0 -1 -0 1 0 2.7540416114732565e-16 -2.7540416114732565e-16 -0 1 2.7749999999999999 0.45000000000000001
5 0 -1 4.9349999999999996 0 -1 -0 1 0 2.7540416114732565e-16 -2.7540416114732565e-16 -0 1 2.7749999999999999 0.45000000000000001
2 0 0 0 -0 -0 -1 1 0 0 0 1 0 4.0049999999999999
5 2.2204460492503131e-16 1 4.9350000000000005 -0 1 0 -1 -0 0 0 0 1 2.4500000000000002 0.45000000000000001
2 2.2204460492503131e-16 0 4.9350000000000005 0 1 0 -1 0 -0 -0 -0 1 2
5 2.2204460492503131e-16 -1 4.9350000000000005 -0 1 0 -1 -0 0 0 0 1 2.4500000000000002 0.45000000000000001
1 -2.560749311871579e-16 7.2262731052669265e-18 0 0 0 1 1 0 -0 -0 1 0 
Triangulations 0

TShapes 152
Ve
1.00000001195747e-07
3.225 -1 0.784095633346449
0 0

0101101
*
Ve
1.00000005697841e-07
3.225 -7.89897185450044e-16 0.925903059402359
0 0

0101101
*
Ed
 1e-07 1 1 0
1  1 0 2.85985629099305 3.14159265358979
2  1 1 0 2.85985629099305 3.14159265358979
2  2 2 1 2.85985629099305 3.14159265358979
0

0101000
+152 0 -151 0 *
Ve
1.00000000496507e-07
3.225 1 0.784095633346449
0 0

0101101
*
Ed
 1e-07 1 1 0
1  2 0 3.14159265358979 3.42332901618653
2  3 1 0 3.14159265358979 3.42332901618653
2  4 2 1 3.14159265358979 3.42332901618653
0

0101000
+151 0 -149 0 *
Ve
1e-07
3.225 1 4.935
0 0

0101101
*
Ed
 1e-07 1 1 0
1  3 0 0.604095633346449 4.755
2  5 3 0 0.604095633346449 4.755
2  6 1 0 0.604095633346449 4.755
4 G1 3 0 1 0
0

0101000
+149 0 -147 0 *
Ve
1e-07
3.225 -1 4.935
0 0

0101101
*
Ed
 1e-07 1 1 0
1  4 0 0.45 2.45
2  7 4 0 0.45 2.45
2  8 1 0 0.45 2.45
0

0101000
+147 0 -145 0 *
Ed
 1e-07 1 1 0
1  5 0 0.604095633346449 4.755
2  9 5 0 0.604095633346449 4.755
2  10 1 0 0.604095633346449 4.755
4 G1 5 0 1 0
0

0101000
+152 0 -145 0 *
Wi

0101100
-150 0 -148 0 -146 0 -144 0 +143 0 *
Fa
0  1e-07 1 0

0101000
+142 0 *
Ve
1.00000006729478e-07
3.9 -9.55224503334936e-16 0.179999999999995
0 0

0101101
*
Ed
 1.00000000166533e-07 1 1 0
1  6 0 0 6.28318530717959
2  11 2 1 0 6.28318530717959
2  12 6 2 0 6.28318530717959
2  13 7 0 0 6.28318530717959
0

0101100
+140 0 -140 0 *
Ed
 1e-07 1 1 0
1  7 0 6.91441663125712 7.12303302527409
3  14 15CN 2 0 6.91441663125712 7.12303302527409
0

0101000
+140 3 -151 3 *
Ve
1.00000000444089e-07
2.775 1.45 1.00802521736934
0 0

0101101
*
Ed
 1e-07 1 1 0
1  8 0 0 1
2  16 3 0 0 1
2  17 2 1 0 1
0

0101000
+137 0 -149 0 *
Ve
1.00000000444089e-07
2.45 1.45 1.23199785707572
0 0

0101101
*
Ed
 1e-07 1 1 0
1  9 0 2.49534871083052 2.58102741347652
2  18 8 0 2.49534871083052 2.58102741347652
2  19 2 1 2.49534871083052 2.58102741347652
0

0101000
+137 0 -135 0 *
Ve
1.00000000628037e-07
2 1 1.61134296199813
0 0

0101101
*
Ed
 1e-07 1 1 0
1  10 0 0 1
2  20 9 0 0 1
2  21 2 1 0 1
0

0101000
+135 0 -133 0 *
Ve
1.00000004311326e-07
2 -4.89858719658941e-16 1.72655411469344
0 0

0101101
*
Ed
 1e-07 1 1 0
1  11 0 6.05377447033995 6.28318530717959
2  22 10 0 6.05377447033995 6.28318530717959
2  23 2 1 6.05377447033995 6.28318530717959
0

0101000
+133 0 -131 0 *
Ve
1e-07
2.95807867757683e-16 -7.24520316824101e-32 4.83090909090909
0 0

0101101
*
Ed
 1e-07 1 1 0
1  7 0 7.42713684572173 7.85398163397448
3  14 15CN 2 0 7.42713684572173 7.85398163397448
0

0101000
+131 3 -129 0 *
Ed
 1e-07 1 1 1
2  24 2 0 0 6.28318530717959
0

0101000
+129 0 -129 0 *
Ve
1.00000000496507e-07
2 -1 1.61134296199813
0 0

0101101
*
Ed
 1e-07 1 1 0
1  12 0 0 0.229410836839641
2  25 10 0 0 0.229410836839641
2  26 2 1 0 0.229410836839641
0

0101000
+131 0 -126 0 *
Ve
1.00000000444089e-07
2.45 -1.45 1.23199785707572
0 0

0101101
*
Ed
 1e-07 1 1 0
1  13 0 0 1
2  27 11 0 0 1
2  28 2 1 0 1
0

0101000
+126 0 -124 0 *
Ve
1.00000000444089e-07
2.775 -1.45 1.00802521736934
0 0

0101101
*
Ed
 1e-07 1 1 0
1  14 0 2.49534871083052 2.58102741347652
2  29 12 0 2.49534871083052 2.58102741347652
2  30 2 1 2.49534871083052 2.58102741347652
0

0101000
+122 0 -124 0 *
Ed
 1e-07 1 1 0
1  15 0 0 1
2  31 5 0 0 1
2  32 2 1 0 1
0

0101000
+152 0 -122 0 *
Wi

0101100
+139 0 -138 1 -148 0 +136 0 -134 0 -132 0 -130 0 -128 1 -127 1 +128 1 
-125 0 -123 0 +121 0 +120 0 -150 0 +138 1 *
Ve
1.00000001294731e-07
-2 -1 1.61134296199813
0 0

0101101
*
Ve
1.00000002979041e-07
-2.45 -1.45 1.23199785707572
0 0

0101101
*
Ed
 1e-07 1 1 0
1  16 0 0 1
2  33 13 0 0 1
2  34 2 1 0 1
0

0101000
+118 0 -117 0 *
Ve
1.00000000248253e-07
-2 1 1.61134296199813
0 0

0101101
*
Ed
 1e-07 1 1 0
1  17 0 2.91218181675015 3.37100349042943
2  35 14 0 2.91218181675015 3.37100349042943
2  36 2 1 2.91218181675015 3.37100349042943
0

0101000
+118 0 -115 0 *
Ve
1.00000002979041e-07
-2.45 1.45 1.23199785707572
0 0

0101101
*
Ed
 1e-07 1 1 0
1  18 0 0 1
2  37 15 0 0 1
2  38 2 1 0 1
0

0101000
+113 0 -115 0 *
Ve
1.00000001256074e-07
-2.775 1.45 1.00802521736934
0 0

0101101
*
Ed
 1e-07 1 1 0
1  9 0 3.70215789370306 3.78783659634907
2  18 8 0 3.70215789370306 3.78783659634907
2  19 2 1 3.70215789370306 3.78783659634907
0

0101000
+113 0 -111 0 *
Ve
1.00000002094765e-07
-3.225 1 0.78409563334645
0 0

0101101
*
Ed
 1e-07 1 1 0
1  19 0 0 1
2  39 16 0 0 1
2  40 2 1 0 1
0

0101000
+111 0 -109 0 *
Ve
1.00000000999201e-07
-3.225 -1 0.78409563334645
0 0

0101101
*
Ed
 1e-07 1 1 0
1  20 0 6.00144894458284 6.56492166977633
2  41 17 0 6.00144894458284 6.56492166977633
2  42 2 1 6.00144894458284 6.56492166977633
0

0101000
+109 0 -107 0 *
Ve
1.00000001256074e-07
-2.775 -1.45 1.00802521736934
0 0

0101101
*
Ed
 1e-07 1 1 0
1  21 0 0 1
2  43 18 0 0 1
2  44 2 1 0 1
0

0101000
+107 0 -105 0 *
Ed
 1e-07 1 1 0
1  14 0 3.70215789370306 3.78783659634907
2  29 12 0 3.70215789370306 3.78783659634907
2  30 2 1 3.70215789370306 3.78783659634907
0

0101000
+117 0 -105 0 *
Wi

0101100
+116 0 -114 0 +112 0 -110 0 -108 0 -106 0 -104 0 +103 0 *
Fa
0  1e-07 2 1

0101000
+119 0 +102 0 *
Ve
1e-07
2.775 1.45 4.935
0 0

0101101
*
Ed
 1e-07 1 1 0
1  22 0 0.82802521736934 4.755
2  45 3 0 0.82802521736934 4.755
2  46 8 0 0.82802521736934 4.755
4 G1 3 0 8 0
0

0101000
+137 0 -100 0 *
Ed
 1e-07 1 1 0
1  23 0 0 1.5707963267949
2  47 3 0 0 1.5707963267949
2  48 19 0 0 1.5707963267949
4 G1 3 0 19 0
0

0101000
+100 0 -147 0 *
Wi

0101100
-99 0 -98 0 +146 0 +136 0 *
Fa
0  1e-07 3 0

0101000
+97 0 *
Ve
1e-07
-3.225 1 4.935
0 0

0101101
*
Ve
1e-07
-3.225 -1 4.935
0 0

0101101
*
Ed
 1e-07 1 1 0
1  24 0 0.45 2.45
2  49 4 0 0.45 2.45
2  50 17 0 0.45 2.45
0

0101000
+95 0 -94 0 *
Ed
 1e-07 1 1 0
1  25 0 0 3.14159265358979
2  51 19 0 0 3.14159265358979
2  52 4 0 0 3.14159265358979
4 G1 19 0 4 0
0

0101000
+147 0 -95 0 *
Ed
 1e-07 1 1 0
1  26 0 0 3.14159265358979
2  53 20 0 0 3.14159265358979
2  54 4 0 0 3.14159265358979
4 G1 20 0 4 0
0

0101000
+145 0 -94 0 *
Wi

0101100
-93 0 -92 0 +91 0 +144 0 *
Fa
0  0 4 0

0101000
+90 0 *
Ve
1e-07
2.775 -1.45 4.935
0 0

0101101
*
Ed
 1e-07 1 1 0
1  27 0 0 1.5707963267949
2  55 5 0 0 1.5707963267949
2  56 20 0 0 1.5707963267949
4 G1 5 0 20 0
0

0101000
+145 0 -88 0 *
Ed
 1e-07 1 1 0
1  28 0 0.82802521736934 4.755
2  57 5 0 0.82802521736934 4.755
2  58 12 0 0.82802521736934 4.755
4 G1 5 0 12 0
0

0101000
+122 0 -88 0 *
Wi

0101100
-143 0 -87 0 +86 0 +120 0 *
Fa
0  1e-07 5 0

0101000
+85 0 *
Ve
1e-07
4.005 0 0.18
0 0

0101101
*
Ed
 1e-07 1 1 0
1  29 0 0 6.28318530717959
2  59 21 0 0 6.28318530717959
2  60 7 0 0 6.28318530717959
0

0101000
+83 0 -83 0 *
Wi

0101100
+82 0 *
Wi

0101100
-139 0 *
Fa
0  1e-07 7 0

0101000
+81 0 +80 0 *
Ve
1e-07
-2.775 1.45 4.935
0 0

0101101
*
Ed
 1e-07 1 1 0
1  30 0 0 3.92697478263066
2  61 16 0 0 3.92697478263066
2  62 8 0 0 3.92697478263066
4 G1 16 0 8 0
0

0101000
+78 0 -111 0 *
Ed
 1e-07 1 1 0
1  31 0 0 3.14159265358979
2  63 19 0 0 3.14159265358979
2  64 8 0 0 3.14159265358979
4 G1 19 0 8 0
0

0101000
+100 0 -78 0 *
Ve
1e-07
2.45 1.45 4.935
0 0

0101101
*
Ed
 1e-07 1 1 0
1  32 0 0 3.70300214292428
2  65 9 0 0 3.70300214292428
2  66 8 0 0 3.70300214292428
4 G1 9 0 8 0
0

0101000
+75 0 -135 0 *
Ve
1e-07
-2.45 1.45 4.935
0 0

0101101
*
Ed
 1e-07 1 1 0
1  33 0 0 3.14159265358979
2  67 22 0 0 3.14159265358979
2  68 8 0 0 3.14159265358979
4 G1 22 0 8 0
0

0101000
+73 0 -75 0 *
Ed
 1e-07 1 1 0
1  34 0 1.05199785707572 4.755
2  69 15 0 1.05199785707572 4.755
2  70 8 0 1.05199785707572 4.755
4 G1 15 0 8 0
0

0101000
+113 0 -73 0 *
Wi

0101100
+77 0 +76 0 +99 0 -134 0 +74 0 +72 0 +71 0 -110 0 *
Fa
0  1e-07 8 0

0101000
+70 0 *
Ve
1e-07
2 1 4.935
0 0

0101101
*
Ed
 1e-07 1 1 0
1  35 0 0 3.32365703800187
2  71 9 0 0 3.32365703800187
2  72 10 0 0 3.32365703800187
4 G1 9 0 10 0
0

0101000
+68 0 -133 0 *
Ed
 1e-07 1 1 0
1  36 0 1.5707963267949 3.14159265358979
2  73 22 0 1.5707963267949 3.14159265358979
2  74 9 0 1.5707963267949 3.14159265358979
4 G1 22 0 9 0
0

0101000
+75 0 -68 0 *
Wi

0101100
-74 0 -132 0 +67 0 +66 0 *
Fa
0  1e-07 9 0

0101000
+65 0 *
Ve
1e-07
2 -1 4.935
0 0

0101101
*
Ed
 1e-07 1 1 0
1  37 0 0.45 2.45
2  75 23 0 0.45 2.45
2  76 10 0 0.45 2.45
0

0101000
+63 0 -68 0 *
Ed
 1e-07 1 1 0
1  38 0 0 3.32365703800187
2  77 11 0 0 3.32365703800187
2  78 10 0 0 3.32365703800187
4 G1 11 0 10 0
0

0101000
+63 0 -126 0 *
Wi

0101100
-62 0 -67 0 -130 0 -125 0 +61 0 *
Fa
0  1e-07 10 0

0101000
+60 0 *
Ve
1e-07
2.45 -1.45 4.935
0 0

0101101
*
Ed
 1e-07 1 1 0
1  39 0 0 3.70300214292428
2  79 11 0 0 3.70300214292428
2  80 12 0 0 3.70300214292428
4 G1 11 0 12 0
0

0101000
+58 0 -124 0 *
Ed
 1e-07 1 1 0
1  40 0 3.14159265358979 4.71238898038469
2  81 24 0 3.14159265358979 4.71238898038469
2  82 11 0 3.14159265358979 4.71238898038469
4 G1 24 0 11 0
0

0101000
+63 0 -58 0 *
Wi

0101100
-61 0 -123 0 +57 0 +56 0 *
Fa
0  1e-07 11 0

0101000
+55 0 *
Ve
1e-07
-2.775 -1.45 4.935
0 0

0101101
*
Ed
 1e-07 1 1 0
1  41 0 0 3.92697478263066
2  83 18 0 0 3.92697478263066
2  84 12 0 0 3.92697478263066
4 G1 18 0 12 0
0

0101000
+53 0 -105 0 *
Ed
 1e-07 1 1 0
1  42 0 0 3.14159265358979
2  85 20 0 0 3.14159265358979
2  86 12 0 0 3.14159265358979
4 G1 20 0 12 0
0

0101000
+88 0 -53 0 *
Ve
1e-07
-2.45 -1.45 4.935
0 0

0101101
*
Ed
 1e-07 1 1 0
1  43 0 0 3.14159265358979
2  87 24 0 0 3.14159265358979
2  88 12 0 0 3.14159265358979
4 G1 24 0 12 0
0

0101000
+50 0 -58 0 *
Ed
 1e-07 1 1 0
1  44 0 1.05199785707572 4.755
2  89 13 0 1.05199785707572 4.755
2  90 12 0 1.05199785707572 4.755
4 G1 13 0 12 0
0

0101000
+117 0 -50 0 *
Wi

0101100
+52 0 +51 0 +86 0 -121 0 +57 0 +49 0 +48 0 -103 0 *
Fa
0  1e-07 12 0

0101000
+47 0 *
Ve
1e-07
-2 -1 4.935
0 0

0101101
*
Ed
 1e-07 1 1 0
1  45 0 1.43134296199813 4.755
2  91 13 0 1.43134296199813 4.755
2  92 14 0 1.43134296199813 4.755
4 G1 13 0 14 0
0

0101000
+118 0 -45 0 *
Ed
 1e-07 1 1 0
1  46 0 0 1.5707963267949
2  93 13 0 0 1.5707963267949
2  94 24 0 0 1.5707963267949
4 G1 13 0 24 0
0

0101000
+45 0 -50 0 *
Wi

0101100
-44 0 -43 0 +48 0 +116 0 *
Fa
0  1e-07 13 0

0101000
+42 0 *
Ve
1e-07
-2 1 4.935
0 0

0101101
*
Ed
 1e-07 1 1 0
1  47 0 0.45 2.45
2  95 23 0 0.45 2.45
2  96 14 0 0.45 2.45
0

0101000
+40 0 -45 0 *
Ed
 1e-07 1 1 0
1  48 0 1.43134296199813 4.755
2  97 15 0 1.43134296199813 4.755
2  98 14 0 1.43134296199813 4.755
4 G1 15 0 14 0
0

0101000
+115 0 -40 0 *
Wi

0101100
-39 0 +44 0 -114 0 -38 0 *
Fa
0  1e-07 14 0

0101000
+37 0 *
Ed
 1e-07 1 1 0
1  49 0 0 1.5707963267949
2  99 15 0 0 1.5707963267949
2  100 22 0 0 1.5707963267949
4 G1 15 0 22 0
0

0101000
+73 0 -40 0 *
Wi

0101100
-71 0 -35 0 +38 0 +112 0 *
Fa
0  1e-07 15 0

0101000
+34 0 *
Ed
 1e-07 1 1 0
1  50 0 0 4.15090436665355
2  101 16 0 0 4.15090436665355
2  102 17 0 0 4.15090436665355
4 G1 16 0 17 0
0

0101000
+95 0 -109 0 *
Ed
 1e-07 1 1 0
1  51 0 4.71238898038469 6.28318530717959
2  103 19 0 4.71238898038469 6.28318530717959
2  104 16 0 4.71238898038469 6.28318530717959
4 G1 19 0 16 0
0

0101000
+78 0 -95 0 *
Wi

0101100
-77 0 -108 0 +32 0 +31 0 *
Fa
0  1e-07 16 0

0101000
+30 0 *
Ed
 1e-07 1 1 0
1  52 0 0 4.15090436665355
2  105 18 0 0 4.15090436665355
2  106 17 0 0 4.15090436665355
4 G1 18 0 17 0
0

0101000
+94 0 -107 0 *
Wi

0101100
-106 0 +28 0 +93 0 -32 0 *
Fa
0  1e-07 17 0

0101000
+27 0 *
Ed
 1e-07 1 1 0
1  53 0 0 1.5707963267949
2  107 20 0 0 1.5707963267949
2  108 18 0 0 1.5707963267949
4 G1 20 0 18 0
0

0101000
+94 0 -53 0 *
Wi

0101100
-28 0 -104 0 +52 0 +25 0 *
Fa
0  1e-07 18 0

0101000
+24 0 *
Wi

0101100
-98 0 +76 0 -92 0 +31 0 *
Fa
0  0 19 0

0101000
+22 0 *
Wi

0101100
-87 0 +91 0 -51 0 +25 0 *
Fa
0  0 20 0

0101000
+20 0 *
Ve
1e-07
4.005 0 0
0 0

0101101
*
Ed
 1e-07 1 1 0
1  54 0 0 0.18
3  109 110CN 21 0 0 0.18
0

0101000
+18 0 -83 0 *
Ed
 1e-07 1 1 0
1  55 0 0 6.28318530717959
2  111 21 0 0 6.28318530717959
2  112 25 0 0 6.28318530717959
0

0101000
+18 0 -18 0 *
Wi

0101100
+17 0 -17 0 -16 0 +82 0 *
Fa
0  1e-07 21 0

0101000
+15 0 *
Ed
 1e-07 1 1 0
1  56 0 0 3.14159265358979
2  113 22 0 0 3.14159265358979
2  114 23 0 0 3.14159265358979
4 G1 22 0 23 0
0

0101000
+40 0 -68 0 *
Wi

0101100
-35 0 +72 0 -13 0 +66 0 *
Fa
0  0 22 0

0101000
+12 0 *
Ed
 1e-07 1 1 0
1  57 0 0 3.14159265358979
2  115 24 0 0 3.14159265358979
2  116 23 0 0 3.14159265358979
4 G1 24 0 23 0
0

0101000
+45 0 -63 0 *
Wi

0101100
+62 0 +10 0 -13 0 +39 0 *
Fa
0  0 23 0

0101000
+9 0 *
Wi

0101100
-43 0 +10 0 -49 0 +56 0 *
Fa
0  0 24 0

0101000
+7 0 *
Wi

0101100
+16 0 *
Fa
0  1e-07 25 0

0101000
+5 0 *
Sh

0101100
-141 0 +101 0 -96 0 -89 0 -84 0 +79 0 -69 0 -64 0 -59 0 -54 0 
+46 0 -41 0 -36 0 -33 0 -29 0 -26 0 -23 0 +21 0 +19 0 -14 0 
+11 0 -8 0 +6 0 -4 0 *
So

0100000
+3 0 *
Co

1100000
+2 0 *

+1 0 